<svg width="26" height="26" viewBox="0 0 26 26" fill="none" xmlns="http://www.w3.org/2000/svg">
<path d="M3.64285 0.657135C2.82068 0.657135 2.03218 0.983741 1.45082 1.5651C0.869453 2.14647 0.542847 2.93496 0.542847 3.75713L0.542847 22.3571C0.542847 23.1793 0.869453 23.9678 1.45082 24.5492C2.03218 25.1305 2.82068 25.4571 3.64285 25.4571H22.2428C23.065 25.4571 23.8535 25.1305 24.4349 24.5492C25.0162 23.9678 25.3428 23.1793 25.3428 22.3571V3.75713C25.3428 2.93496 25.0162 2.14647 24.4349 1.5651C23.8535 0.983741 23.065 0.657135 22.2428 0.657135L3.64285 0.657135ZM13.7178 7.63213V16.6113L17.0441 13.2834C17.1162 13.2114 17.2017 13.1542 17.2959 13.1152C17.39 13.0762 17.4909 13.0562 17.5928 13.0562C17.6947 13.0562 17.7957 13.0762 17.8898 13.1152C17.9839 13.1542 18.0695 13.2114 18.1415 13.2834C18.2136 13.3555 18.2708 13.441 18.3098 13.5352C18.3488 13.6293 18.3688 13.7302 18.3688 13.8321C18.3688 13.934 18.3488 14.0349 18.3098 14.1291C18.2708 14.2232 18.2136 14.3088 18.1415 14.3808L13.4915 19.0308C13.4196 19.103 13.334 19.1603 13.2399 19.1993C13.1457 19.2384 13.0448 19.2585 12.9428 19.2585C12.8409 19.2585 12.74 19.2384 12.6458 19.1993C12.5517 19.1603 12.4661 19.103 12.3941 19.0308L7.74415 14.3808C7.67209 14.3088 7.61493 14.2232 7.57593 14.1291C7.53694 14.0349 7.51687 13.934 7.51687 13.8321C7.51687 13.7302 7.53694 13.6293 7.57593 13.5352C7.61493 13.441 7.67209 13.3555 7.74415 13.2834C7.88967 13.1379 8.08704 13.0562 8.29285 13.0562C8.39475 13.0562 8.49566 13.0762 8.5898 13.1152C8.68395 13.1542 8.76949 13.2114 8.84155 13.2834L12.1678 16.6113V7.63213C12.1678 7.42659 12.2495 7.22947 12.3948 7.08413C12.5402 6.93879 12.7373 6.85713 12.9428 6.85713C13.1484 6.85713 13.3455 6.93879 13.4909 7.08413C13.6362 7.22947 13.7178 7.42659 13.7178 7.63213Z" fill="#AEC3D7"/>
</svg>
