<svg width="21" height="21" viewBox="0 0 21 21" fill="none" xmlns="http://www.w3.org/2000/svg">
<rect width="21" height="21" rx="3" fill="#3D7BC2"/>
<path d="M15 9.50006H10.5C9.94772 9.50006 9.5 9.94778 9.5 10.5001V15.0001C9.5 15.5523 9.94772 16.0001 10.5 16.0001H15C15.5523 16.0001 16 15.5523 16 15.0001V10.5001C16 9.94778 15.5523 9.50006 15 9.50006Z" stroke="white" stroke-width="1.5" stroke-linecap="round" stroke-linejoin="round"/>
<path d="M7.5 12.5H7C6.73478 12.5 6.48043 12.3946 6.29289 12.2071C6.10536 12.0196 6 11.7652 6 11.5V7C6 6.73478 6.10536 6.48043 6.29289 6.29289C6.48043 6.10536 6.73478 6 7 6H11.5C11.7652 6 12.0196 6.10536 12.2071 6.29289C12.3946 6.48043 12.5 6.73478 12.5 7V7.5" stroke="white" stroke-width="1.5" stroke-linecap="round" stroke-linejoin="round"/>
</svg>
