<svg width="24" height="24" viewBox="0 0 24 24" fill="none" xmlns="http://www.w3.org/2000/svg">
<circle cx="12" cy="12" r="11.5" fill="white" stroke="#96AEC4"/>
<path d="M7.54009 11.8974C7.47557 11.8378 7.43633 11.7589 7.42953 11.6749C7.42272 11.5909 7.4488 11.5075 7.50301 11.4397L7.54009 11.4003L11.7312 7.53185C11.7957 7.47229 11.8812 7.43608 11.9722 7.4298C12.0632 7.42351 12.1536 7.44758 12.227 7.49762L12.2697 7.53185L16.4608 11.4003C16.5283 11.4632 16.5677 11.5472 16.5711 11.6357C16.5745 11.7241 16.5416 11.8105 16.479 11.8776C16.4164 11.9446 16.3287 11.9875 16.2334 11.9975C16.1382 12.0075 16.0423 11.984 15.965 11.9316L15.9223 11.8974L12.0004 8.27742L8.07859 11.8974C8.00715 11.9633 7.91031 12.0002 7.80934 12.0002C7.70837 12.0002 7.61153 11.9633 7.54009 11.8974Z" fill="#96AEC4"/>
<path d="M7.54009 15.326C7.47557 15.2664 7.43633 15.1875 7.42953 15.1035C7.42272 15.0195 7.4488 14.9361 7.50301 14.8683L7.54009 14.8289L11.7312 10.9604C11.7957 10.9009 11.8812 10.8647 11.9722 10.8584C12.0632 10.8521 12.1536 10.8762 12.227 10.9262L12.2697 10.9604L16.4608 14.8289C16.5283 14.8918 16.5677 14.9758 16.5711 15.0643C16.5745 15.1527 16.5416 15.2391 16.479 15.3062C16.4164 15.3732 16.3287 15.416 16.2334 15.4261C16.1382 15.4361 16.0423 15.4126 15.965 15.3602L15.9223 15.326L12.0004 11.706L8.07859 15.326C8.00715 15.3918 7.91031 15.4288 7.80934 15.4288C7.70837 15.4288 7.61153 15.3918 7.54009 15.326Z" fill="#96AEC4"/>
</svg>
