<svg width="46" height="48" viewBox="0 0 46 48" fill="none" xmlns="http://www.w3.org/2000/svg">
<path d="M25.166 43.4652C35.016 43.4652 43.001 35.4966 43.001 25.6669C43.001 15.8372 35.016 7.86868 25.166 7.86868C15.316 7.86868 7.33105 15.8372 7.33105 25.6669C7.33105 35.4966 15.316 43.4652 25.166 43.4652Z" fill="#3D7BC2"/>
<path d="M32.7378 20.546C33.8642 20.546 34.8029 19.6093 34.8029 18.4852C34.8029 17.3611 33.8642 16.4243 32.7378 16.4243C31.6114 16.4243 30.6727 17.3611 30.6727 18.4852C30.6727 19.6093 31.6114 20.546 32.7378 20.546Z" fill="#102E5E"/>
<path d="M35.3662 31.6621C36.8055 31.6621 37.9945 30.4756 37.9945 29.0392C37.9945 27.6029 36.8055 26.4163 35.3662 26.4163C33.9269 26.4163 32.7379 27.6029 32.7379 29.0392C32.7379 30.4756 33.9269 31.6621 35.3662 31.6621Z" fill="#102E5E"/>
<path d="M43.1261 26.3539C44.2525 26.0416 45.1286 25.0424 45.1286 23.7934C45.1286 22.5444 44.3151 21.5452 43.1261 21.233C42.3752 14.8006 38.683 9.24259 33.489 5.93275L34.3651 4.996C34.678 5.1209 35.0534 5.18335 35.4289 5.18335C36.8682 5.18335 38.0572 3.9968 38.0572 2.56045C38.0572 1.1241 36.8682 0 35.3663 0C33.8644 0 32.738 1.18655 32.738 2.6229C32.738 3.1225 32.8632 3.55965 33.1135 3.9968L31.9871 5.18335C29.0459 3.6221 25.6666 2.7478 22.0996 2.7478C10.46 2.7478 0.947998 12.2402 0.947998 23.8559C0.947998 35.4716 10.46 44.964 22.0996 44.964C25.6666 44.964 29.0459 44.0897 31.9871 42.5284L33.1135 43.6525C32.8632 44.0272 32.738 44.4644 32.738 44.964C32.738 46.4003 33.927 47.5869 35.3663 47.5869C36.8057 47.5869 37.9946 46.4003 37.9946 44.964C37.9946 43.5276 36.8057 42.3411 35.3663 42.3411C34.9909 42.3411 34.6154 42.4035 34.3025 42.5909L33.4264 41.7166C38.6204 38.2818 42.3126 32.7862 43.1261 26.3539ZM41.4991 21.3579C40.4978 21.7326 39.8094 22.6693 39.8094 23.7934C39.8094 24.9175 40.4978 25.8543 41.4365 26.229C40.6855 32.2242 37.1811 37.3451 32.2374 40.3427L17.6565 25.1049C17.8443 24.7302 17.9694 24.293 17.9694 23.7934C17.9694 23.2938 17.8443 22.8567 17.594 22.482L32.2374 7.18174C37.2437 10.1793 40.7481 15.3627 41.4991 21.3579ZM22.0996 43.2154C11.3361 43.2154 2.57505 34.4724 2.57505 23.731C2.57505 12.9896 11.3361 4.2466 22.0996 4.2466C25.2286 4.2466 28.1698 4.996 30.7981 6.30745L16.405 21.3579C16.3424 21.3579 16.2798 21.2954 16.2172 21.2954V13.052C17.2811 12.6773 17.9694 11.7406 17.9694 10.554C17.9694 9.11769 16.7804 7.93114 15.3411 7.93114C13.9018 7.93114 12.7128 9.11769 12.7128 10.554C12.7128 11.7406 13.5263 12.7398 14.5902 13.052V21.233C13.5263 21.5452 12.7128 22.5444 12.7128 23.731C12.7128 24.9175 13.5263 25.9167 14.5902 26.229V34.3475C13.5263 34.6597 12.7128 35.6589 12.7128 36.8455C12.7128 38.2818 13.9018 39.4684 15.3411 39.4684C16.7804 39.4684 17.9694 38.2818 17.9694 36.8455C17.9694 35.7214 17.2185 34.7222 16.2172 34.3475V26.2914C16.2798 26.2914 16.3424 26.229 16.405 26.229L30.7355 41.217C28.1698 42.5284 25.2286 43.2154 22.0996 43.2154Z" fill="white"/>
</svg>
